<svg xmlns="http://www.w3.org/2000/svg" viewBox="0 0 253.8 43.78"><defs><style>.cls-1{fill:#57b587;}</style></defs><title>birds</title><g id="Layer_2" data-name="Layer 2"><g id="Layer_1-2" data-name="Layer 1"><g id="OBJECTS"><path class="cls-1" d="M136.7,19.18s-4-1.8-5.9,0c0,0,3.7-.5,5.9,2.2,2.2-2.7,5.9-2.2,5.9-2.2C140.7,17.38,136.7,19.18,136.7,19.18Z"/><path class="cls-1" d="M30.8,1s-5-2.2-7.4,0c0,0,4.7-.7,7.4,2.8C33.6.28,38.2,1,38.2,1,35.8-1.22,30.8,1,30.8,1Z"/><path class="cls-1" d="M187.7,40.08s-6.7-3-9.9,0c0,0,6.2-.9,9.9,3.7,3.7-4.6,9.9-3.7,9.9-3.7C194.3,37.08,187.7,40.08,187.7,40.08Z"/><path class="cls-1" d="M161.3,22.88s-2.3-1-3.5,0a4.11,4.11,0,0,1,3.5,1.3,4.11,4.11,0,0,1,3.5-1.3C163.6,21.78,161.3,22.88,161.3,22.88Z"/><path class="cls-1" d="M250.6,22.88s-2.2-1-3.2,0a4.87,4.87,0,0,0,6.4,0C252.8,21.88,250.6,22.88,250.6,22.88Z"/><path class="cls-1" d="M78.9,16s-2.2-1-3.2,0a3.68,3.68,0,0,1,3.2,1.2A3.68,3.68,0,0,1,82.1,16C81.1,15,78.9,16,78.9,16Z"/><path class="cls-1" d="M3.5,38.38s-2.3-1-3.5,0a4.11,4.11,0,0,1,3.5,1.3A4.11,4.11,0,0,1,7,38.38C5.8,37.28,3.5,38.38,3.5,38.38Z"/></g></g></g></svg>