<?xml version="1.0" encoding="utf-8"?>
<!-- Generator: Adobe Illustrator 23.0.2, SVG Export Plug-In . SVG Version: 6.00 Build 0)  -->
<svg version="1.1" id="Layer_1" xmlns="http://www.w3.org/2000/svg" xmlns:xlink="http://www.w3.org/1999/xlink" x="0px" y="0px"
	 viewBox="0 0 766.3 296" style="enable-background:new 0 0 766.3 296;" xml:space="preserve">
<style type="text/css">
	.st0{fill:url(#SVGID_1_);}
	.st1{fill:url(#SVGID_2_);}
</style>
<title>Asset 1</title>
<g>
	<g id="OBJECTS">
		
			<linearGradient id="SVGID_1_" gradientUnits="userSpaceOnUse" x1="322.19" y1="-80.55" x2="322.19" y2="126.46" gradientTransform="matrix(1 0 0 -1 0 295.89)">
			<stop  offset="0" style="stop-color:#3D6564"/>
			<stop  offset="1" style="stop-color:#0F2C30"/>
		</linearGradient>
		<path class="st0" d="M644.4,282c0,0-3.7-42.4-5.8-49.4s-7-21.7-7-21.7s-7.9,11.3-9.8,14.9s-8.2,8.2-8.2,8.2s-4.9-4.9-6.1-9.8
			c-1.1-3.9-2.4-7.8-4-11.6c0,0,0.3,0.3-1.5,3.4s-3.4,3.4-4.3,7.6c-0.5,2.5-1.8,4.9-3.7,6.7l-6.1-6.1l-4.3,0.6l-4.9-0.6
			c0,0,0,1.2-2.8-3.1s-2.5-10.3-2.5-10.3l-1.8-6.1c-0.8,1.5-1.7,2.9-2.7,4.3c-1.5,1.8-1.8,2.1-2.8,6.1s-5.8,9.2-5.8,9.2l-3.7,4.6
			c0,0-3.7-4.9-4.9-6.7s-1.5-9.8-1.5-9.8l-2.1-7.6L544,193c0,0-3.7,6.4-3.7,9.4s-2.4,9.1-4,10.7s-1.5,9.1-1.5,9.1l-5.4,4.3
			c1.1-3,1.1-6.2,0-9.1c-1.8-4.9-3.7-10.4-3.7-10.4v-9.5c-1.9,0.5-3.5,1.8-4.3,3.7c-1.2,3-1.2,8.5-1.8,9.5s-6.4,8.2-6.4,8.2l-1.2,4
			c0,0-5.2-12.2-8.5-14s-6.1-0.3-7-4.6s-2.7-12.5-2.7-12.5s-3.4-2.4-4.3,2.7S484,208,484,208s-2.8,2.4-2.8,3.4s-3.7-5.8-3.7-5.8
			l-5.3-12.5c0,0,2.1-12.8,0-13.1s-5.2,4.9-5.2,4.9s-3.4,9.8-5.8,13.4s-2.4,15.8-2.4,15.8l-5.5,4l-3.3,5.8c0,0-1.3-5.8-1.9-6.7
			s-6.9-2.4-9.2-5.8c-1.5-2.1-2.7-4.4-3.8-6.7c0,0-5.3-10.4-6.5-9.1s-1.6,7.3-1.6,7.3l-3.5,7l-4.1,3.7l-5.6-6.1c0,0-0.3-3.7-2.5-5.2
			s-9.6-9.1-9.6-9.1s0.1-8.9-1.7-13.1s-1.7-11.9-1.7-11.9s-3.3,0.6-3.7,3.7c-0.7,4.4-1.8,8.6-3.3,12.8c-1,2.4-4.6,8.6-4.9,10.1
			s-3.5,11.3-3.5,11.3v-8.5l-3.5-3.1l-3.9-5.5c0,0-6.8-4.3-6.6-5.8s-1.6,0.3-2.5-6.4s-1.4-14-2.7-16.2s2.8-9.5,0-9.8
			s-4.6,5.8-5.2,11.9s1,10.4-2.4,14s-2.6,11.6-3.4,12.5s-7.8,6.7-7.8,6.7l-2.9-12.5c0,0-4.6-11.9-5.1-13.7s-2.4-11-3.3-12.2
			s-2.7-5.5-2.7,2.7s3.7,11.9-1.2,15.3s-6.4,13.7-6.4,13.7l-3.4,6.4l-8.2,0.6l-3.3-0.6v-7.3l-5.2-9.8c0,0,0-16.2-1.8-18
			s-2.8,8.8-2.8,8.8l-4,4.3c0,0-3,13.4-7.9,16.2s-6.4,3.7-6.4,5.8s-6.7-11.9-5.2-19.8s0.5-10.4-0.2-14.3s-3.1-22.9-3.1-22.9
			s-0.9,8.5-3.7,11.3s-4.9,12.5-4.6,14s0,8.5-3,12.2s-4,14-4,14l-3,6.7c0,0-2.1-1.8-4.6-8.2s-7.6-8.9-8.8-11.3s-3.7-3.4-4-11.6
			s0-15.6,0-15.6s-4,2.4-4.6,6.1s0.9,11-1.5,14s-10.1,13.2-9.4,15s-1.8,5.8-1.8,5.8s0.6-19.5,0-20.4s-0.9-1.8-3.1-10.7
			s-3.4-12.5-3.7-13.7s-3.4,6.1-3.7,7.6s-0.3,7.6-2.4,11s-8.5,11.3-9.8,15.6s-3,10.1-4.3,11.6s-7,3.7-7,3.7s-0.3-14,0-15.3
			s-3.7-12.5-4.6-15.3s-4-12.5-5.8-16.8s-5.8-14.9-5.8-14.9s-3.1,1.2-3.4,6.1s0.9,11,0,15.3s-5.2,5.5-6.7,7s-11.6,15.9-11.6,15.9
			l-2.1,7l-12.2-1.8c-0.8-6.5-2-12.9-3.7-19.2c-2.5-8.5-8-22.3-8-22.3c-4-6.1-6.7-13-8-20.2c-2-11.5-9-20-10-21.5s-7.5-17-7.5-17
			s-1.5,7.5-5.5,12s-3.5,12-4,16s-3,15-3,15l3,20c0,0,2,10.4-3,15s-8,12.5-8,12.5L69,155.4l-14-10.5l-19,17l-6.5,1
			c0,0-7.5-14.5-8-16S0,114.4,0,114.4v181h644.4V282z"/>
		
			<linearGradient id="SVGID_2_" gradientUnits="userSpaceOnUse" x1="383.165" y1="-107.02" x2="383.165" y2="128.53" gradientTransform="matrix(1 0 0 -1 0 295.89)">
			<stop  offset="0" style="stop-color:#214244"/>
			<stop  offset="1" style="stop-color:#0A1E21"/>
		</linearGradient>
		<path class="st1" d="M413.5,284.7c0,0-19.9-5-25.1-6.7s-15.8-5.7-15.8-5.7l-10.2-1.7l-9.3-8.7l-11,1.3c0,0-5.6-11-5.8-12.8
			s-4.2-6.9-4.2-6.9s-9.9,5.8-13,4.2c-1.7-0.9-3.6-1.3-5.5-1.2l-4.6-8.3c0,0-2.3-0.7-1.7-8S305,215,305,215l-4.7-2.3l-7.3,6
			c0,0,2.3,14.3,2.3,15.3s-2.3,12.7-2.3,12.7h-5.3l-9.7,3.1l-7.3,5.7l-3,0.6l-6-6.3c0,0,1,6.9-3.7-3.1s-2-10.4-4.7-10
			S247,242,247,242l-4.3-10.3h-3l-5.3-9c0,0-3,0.7-3.7,2s-6,20.6-6,20.6s-1.3,7.4-2.3,7.6s-6.3,5.6-6.3,5.6l-2.7,8.6l-17-1.3
			l-15-0.7l-4-2.3l-9-16l1.7-22l-4.3-3.3c0,0-4.3,1.3-4.3-6.3s-11.3-7-9.3-18.7s8.3-23.3,6.3-28.7s-13.7-13-16-29.7
			s-2.3-19-7.3-21.7s-4.7-11-4.7-18.7s-3.3-6-5.7-14.3s-11-29-11-29s-3,12.3-4.7,16.7s-2.7,17-2.7,22.7S102,107,102,107
			c-4.3,3.7-2.3,16.3-2.3,24s8,37,3.3,43s-7,8-6.7,11s4.3,11,0,19.3s-6.3,14-7,20.7s-6,23.1-6,23.1s-6-10.1-5.3-16.4
			s1.7-10.3,1.7-15.7s2.3-7,3.3-12.7s1.7-17.7,1.7-17.7c-1.1-6.6-1.6-13.3-1.7-20c0-10.7-3-25.3-3-25.3s-3.3-9.7-6.3-14.7
			s-7.3-4-7-13s1-22.3-2-28s-7-6.7-7.3-13.3s3.3-19.3,0-26.7s4-9,0-16.3S50,22,48,16.7c-1.2-3.3-3.3-6.1-6-8.3V0c0,0-4,1.3-4.7,8.3
			s-3.3,10-3,13.7s4,18-1.7,25.7s-7.3,23.7-7.3,23.7S23,90.7,22.3,93s-4,59-8.3,65s-9,17.7-9,17.7l-5,28.7V296h766.3V145.7
			c0,0-5.3-16.3-9-28.3s-1-13.7-5-20s-4-20-6.7-22s-2,13.3-4.7,18.3s-1.3,21-3.3,25s-2.7,13.7-2.7,13.7s-4.7,1.7-7.3,1.3s-1,5-4,9
			c-2.3,2.9-4.9,5.6-7.7,8c0,0-1,9.7-3.3,14s-2.3,10-3.3,16.7s-0.7,12.3-2.7,9.7s-1.3-7.7-1.3-7.7s-4-0.7-4-4.3v-12.7
			c0,0-5.3-10-7-18.3s-0.7-16.3-3-17s-0.7,16-2.7,18.7s-6.7,14-7,19s0.7,13.3-0.7,16s-4.7,7.3-4.3,16.7s1.7,14.3-1.7,19
			s-9,9.7-9.7,14.7s-2,12-2,12s-1.3-8-3-14c-1.4-4.7-3.1-9.4-5-14c0,0-4.3-15.7-7.3-20.3s-1.3-16-3.7-17S640,194,640,194
			s-6.7,12.7-7.7,20s-1.7,12.3-1.7,12.3s-12.7,1.7-15,6.7s-5.3,10.6-5.3,10.6s-4,1.3-5.3,4.9c-1.4,3.2-3.1,6.2-5,9.2l-8,0.1l-7,0.7
			c0,0-19,8.6-21.3,9.3s-2.7-9.1-4.7-11.5s-2-9.1-2-9.1s-2.3,0.9-2.7,5.8c-0.3,3.6-0.9,7.3-1.7,10.8L538,271c0,0-20,4-24.3,5
			s-24,8.7-24,8.7l-10,2.3c0,0-25.5,1-27.4,1.3s-23.6-1.7-23.6-1.7L413.5,284.7z"/>
	</g>
</g>
</svg>
