<?xml version="1.0" encoding="utf-8"?>
<!-- Generator: Adobe Illustrator 25.1.0, SVG Export Plug-In . SVG Version: 6.00 Build 0)  -->
<svg version="1.1" id="Layer_1" xmlns="http://www.w3.org/2000/svg" xmlns:xlink="http://www.w3.org/1999/xlink" x="0px" y="0px"
	 viewBox="0 0 7619 2887" style="enable-background:new 0 0 7619 2887;" xml:space="preserve">
<style type="text/css">
	.st0{fill:url(#SVGID_1_);}
	.st1{fill:none;}
	.st2{opacity:0.67;}
	.st3{opacity:0.43;fill:#FFFFFF;enable-background:new    ;}
	.st4{opacity:0.58;fill:#FFFFFF;enable-background:new    ;}
	.st5{opacity:0.65;fill:#FFFFFF;enable-background:new    ;}
	.st6{fill:url(#SVGID_2_);}
	.st7{opacity:0.59;fill:#201352;enable-background:new    ;}
	.st8{opacity:0.37;fill:#FFFEF7;enable-background:new    ;}
	.st9{fill:url(#SVGID_3_);}
	.st10{fill:url(#SVGID_4_);}
	.st11{opacity:0.32;fill:#201352;enable-background:new    ;}
	.st12{fill:url(#SVGID_5_);}
	.st13{opacity:8.000000e-02;fill:#201352;enable-background:new    ;}
	.st14{fill:url(#SVGID_6_);}
	.st15{opacity:0.61;fill:url(#SVGID_7_);enable-background:new    ;}
	.st16{fill:url(#SVGID_8_);}
	.st17{fill:url(#SVGID_9_);}
	.st18{opacity:0.61;fill:url(#SVGID_10_);enable-background:new    ;}
	.st19{fill:#57B587;}
	.st20{fill:url(#SVGID_11_);}
</style>
<g id="BACKGROUND">
	
		<linearGradient id="SVGID_1_" gradientUnits="userSpaceOnUse" x1="3809.5" y1="1659.491" x2="3809.5" y2="3045.2075" gradientTransform="matrix(1 0 0 -1 0 2887)">
		<stop  offset="0" style="stop-color:#FFF9B1"/>
		<stop  offset="0.1888" style="stop-color:#F6F8AF"/>
		<stop  offset="0.4967" style="stop-color:#DEF5AB"/>
		<stop  offset="0.8832" style="stop-color:#B6F1A4"/>
		<stop  offset="1" style="stop-color:#A9EFA2"/>
	</linearGradient>
	<rect class="st0" width="7619" height="2887"/>
</g>
<rect id="SVGID_36_" x="63" y="-159.7" class="st1" width="4714.1" height="3142.7"/>
<g class="st2">
	<path class="st3" d="M1466,606c0,0,136.4,8.2,299.8,33.3s498.4,8.2,628.5,29.5c130.1,20.7,159,71,297.3,88
		c138.3,17,410.4,37.7,477.7,92.4c67.3,54.7,113.1,105,230.7,117.5s251.4,8.2,301.7,42.1c50.3,33.3,198,12.6,159.6,44
		c-38.3,31.4-373.4-18.2-461.3,18.9c-88,37.7,29.5,100.6,111.3,117.5s450.7-37.7,563.8,0c113.1,37.7,243.2,71,397.9,67.3
		c155.2-4.4,237-35.8,347.6,0.6c110.6,36.5,415.5,21.4,532.4,49.7c116.9,28.3,284.7,20.7,284.7,20.7v345.7H1466V606z"/>
	<path class="st4" d="M6283.2,830.4c0,0-447.5,0-607.8,0c-160.3,0-264,31.4-336.3,22c-72.3-9.4-218.7-2.5-233.8,1.9
		c-14.5,4.4-212.4,0-212.4,0s125.7-74.2,188.6-74.2s282.8-15.7,392.8-37.7s141.4-97.4,267.1-84.9c125.7,12.6,172.8,47.1,301.7,25.1
		c128.9-22,240.1-47.1,240.1-47.1V830.4z"/>
	<path class="st4" d="M4522,635.6c0,0,251.4-12.6,323.7,0s166.6,3.1,216.8,0s147.7-5.7,147.7-5.7s-47.1-22.6-147.7-41.5
		c-100.6-18.9-163.4-44-242-31.4S4522,635.6,4522,635.6z"/>
	<path class="st4" d="M2564.1,451.4c0,0,427.4,14.5,529.9,12.6s193-14.5,303.6-12.6c111.3,1.9,207.4,8.2,274.7,6.3
		s152.7-6.3,152.7-6.3s-102.5-20.7-167.8-31.4c-64.7-10.7-106.9-4.4-169.7-27c-62.9-23.3-56.6-35.8-132-31.4s-54.7,20.7-133.9,10.7
		c-79.8-10.7-127.6-48.4-196.7-31.4c-69.1,17-108.7,39.6-199.2,42.1C2735.7,384.1,2612.5,413.7,2564.1,451.4z"/>
</g>
<ellipse class="st5" cx="672.7" cy="438.8" rx="268.4" ry="268.4"/>
<rect id="SVGID_40_" x="63" y="-159.7" class="st1" width="4714.1" height="3142.7"/>
<g>
	
		<linearGradient id="SVGID_2_" gradientUnits="userSpaceOnUse" x1="4948.5806" y1="768.8208" x2="4948.5806" y2="2025.021" gradientTransform="matrix(1 0 0 -1 0 2887)">
		<stop  offset="0" style="stop-color:#FFF9D1"/>
		<stop  offset="0.1888" style="stop-color:#F6F8CC"/>
		<stop  offset="0.4967" style="stop-color:#DEF5BF"/>
		<stop  offset="0.8832" style="stop-color:#B6F1A9"/>
		<stop  offset="1" style="stop-color:#A9EFA2"/>
	</linearGradient>
	<path class="st6" d="M5842.2,1474c0,0-93.4-109.4-117.3-170s-45.5-167.6-117.3-194c-71.8-26.3-158.8-61.5-158.8-61.5l-115.7-85.4
		l-53.5-39.9h-63.9c0,0-31.9,29.5-77.4,31.9c-45.5,2.4-167.6,61.5-167.6,61.5s-119.7,82.2-141.3,93.4
		c-21.6,10.4-183.6,58.3-183.6,58.3l-239.5,77.4l-321.7,181.2l-29.5,441.4h1785.6V1474H5842.2z"/>
	<path class="st7" d="M5420.7,1072.5c43.9,27.9,155.6,127.7,147.7,175.6c-8,47.9-118.9,127.7-118.9,127.7l-48.7,115.7l-207.5,99.8
		l-340,277h989v-393.5c0,0-93.4-109.4-117.3-170c-23.9-61.5-45.5-167.6-117.3-194c-71.8-26.3-158.8-61.5-158.8-61.5L5332.9,964
		C5334.5,963.2,5376.8,1044.6,5420.7,1072.5z"/>
	<path class="st8" d="M4881.9,1162.7l82.2-53.5l87.8-93.4l123.7-68.6c-10.4,4-22.3,7.2-35.9,8c-45.5,2.4-167.6,61.5-167.6,61.5
		s-119.7,82.2-141.3,93.4c-21.6,10.4-183.6,58.3-183.6,58.3l-239.5,77.4l143.7-10.4L4881.9,1162.7z"/>
</g>
<rect id="SVGID_43_" x="63" y="-159.7" class="st1" width="4714.1" height="3142.7"/>
<g>
	
		<linearGradient id="SVGID_3_" gradientUnits="userSpaceOnUse" x1="6431.6221" y1="959.9482" x2="6431.6221" y2="2345.1536" gradientTransform="matrix(1 0 0 -1 0 2887)">
		<stop  offset="0" style="stop-color:#E1F6C1"/>
		<stop  offset="0.2686" style="stop-color:#C5E9B5"/>
		<stop  offset="0.8445" style="stop-color:#7FC897"/>
		<stop  offset="1" style="stop-color:#6BBF8E"/>
	</linearGradient>
	<path class="st9" d="M7673.3,663.7c0,0-196.7,130.1-255.8,163.4c-58.5,33.3-193,29.5-193,29.5h-62.9l-67.3-45.9l-130.1,88
		l-171.6,125.7l-176-133.9l-29.5-50.3l-67.3,12.6l-343.8,196.7l-53.4,41.5h-96.2l-113.1-25.1l-335,238.8L5161,1560.6V1971h2541.2
		L7673.3,663.7z"/>
	<path class="st7" d="M6569,1081.7l-84.9,66l-69.1,122.6v101.2l-88,150.2l-57.8,101.8l215-211.8l134.5-203l174.7-184.2l-176-133.9
		C6628.7,974.8,6569,1081.7,6569,1081.7z"/>
	<path class="st7" d="M7417.5,827.1c-5,2.5-10.1,5-15.7,7.5c0,0-78.6,99.3-135.1,143.3s-226.3,166.6-226.3,166.6
		s-103.7,172.8-172.8,213.7c-69.1,40.9-282.8,202.4-282.8,202.4L6283,1971h1419.2l-29.5-1307.4
		C7673.3,663.7,7475.9,793.8,7417.5,827.1z"/>
</g>
<rect id="SVGID_46_" x="63" y="-159.7" class="st1" width="4714.1" height="3142.7"/>
<g>
	
		<linearGradient id="SVGID_4_" gradientUnits="userSpaceOnUse" x1="2015.5614" y1="155.4168" x2="2015.5614" y2="1720.5005" gradientTransform="matrix(1 0 0 -1 0 2887)">
		<stop  offset="0" style="stop-color:#E1F6C1"/>
		<stop  offset="0.2216" style="stop-color:#C5E2B4"/>
		<stop  offset="0.6963" style="stop-color:#7FAF93"/>
		<stop  offset="1" style="stop-color:#4F8C7D"/>
	</linearGradient>
	<path class="st10" d="M1148.5,810.1h100.6l247-33.3l108.7,33.3l409.8,309.9l207.4,88l600.9,360.2l722.2,184.2l628.5,168.4v372.7
		H-142.5v-959.2c0,0,306.1-171.6,406.7-188.6s402.3-83.6,402.3-83.6l385.3-163.4L1148.5,810.1z"/>
	<path class="st8" d="M2,1287.8l559.4-100.6l322.4-146.4l247-163.4l117.5-67.3h-100.6l-96.2,88l-385.3,163.4
		c0,0-301.7,67.3-402.3,83.6c-100.6,17-406.7,188.6-406.7,188.6v83L2,1287.8z"/>
	<path class="st11" d="M3545.1,1752.3l-722.2-183.5L2222,1208.6l-207.4-88l-206.8-156.5l0,0l164.7,223.1l446.9,276.6
		c0,0,246.4,208,253.9,219.4c8.2,11.3,967.3,94.9,967.3,94.9L3545.1,1752.3z"/>
</g>
<rect id="SVGID_49_" x="63" y="-159.7" class="st1" width="4714.1" height="3142.7"/>
<g>
	
		<linearGradient id="SVGID_5_" gradientUnits="userSpaceOnUse" x1="1370.6787" y1="-590.7017" x2="1370.6787" y2="845.897" gradientTransform="matrix(1 0 0 -1 0 2887)">
		<stop  offset="0" style="stop-color:#ABCDAC"/>
		<stop  offset="0.6555" style="stop-color:#62958E"/>
		<stop  offset="1" style="stop-color:#3A767D"/>
	</linearGradient>
	<path class="st12" d="M2866.9,2120.1l-663.1-78.6l-509.7-119.4l-166.6-163.4l-136.4-53.4l-196.7-184.2l-230.7-96.2H792.1
		c0,0-299.8,135.1-381.5,146.4s-223.8,77.3-223.8,77.3l-312.4,110L2,1952.2v900.7h2747.4L2866.9,2120.1z"/>
	<polygon class="st13" points="1326.4,2054.1 1194.4,2107.5 691.5,2415.5 691.5,2853.6 2750,2853.6 2866.9,2120.1 2203.8,2041.5 
		1694.1,1922.1 1527.5,1758.6 1423.8,1860.5 	"/>
</g>
<rect id="SVGID_52_" x="63" y="-159.7" class="st1" width="4714.1" height="3142.7"/>
<g>
	
		<linearGradient id="SVGID_6_" gradientUnits="userSpaceOnUse" x1="4488.5938" y1="-999.0334" x2="4488.5938" y2="931.3282" gradientTransform="matrix(1 0 0 -1 0 2887)">
		<stop  offset="0" style="stop-color:#6E9E92"/>
		<stop  offset="1" style="stop-color:#23484D"/>
	</linearGradient>
	<path class="st14" d="M7606.2,829.4l-496.5,403.2c0,0-566.8,92.4-662.5,87.5c-95.7-5.7-210.2,65.4-210.2,65.4l-517.8,239.7h-153
		l-370.5-76.1h-125.1L4782.6,1658h-141.5l-63,27l-115.3-76.1l-197.9-81.8l-45-49.1l-160.3-16.4l-63.8-65.4l-109.6,22.1l-249.5,125.1
		l-130.9,43.4l-316.5,65.4l-283.8,169.3c0,0-449.9,202-596.3,224.1c-146.4,21.3-543.1,21.3-543.1,21.3l-395.1,85.9v1124.7h6235.2
		V829.4z"/>
	<path class="st13" d="M3722.6,1677.6l-197.9,81.8c0,0-69.5,151.3-143.1,212.7c-73.6,61.3-355.8,179.9-355.8,179.9l-216.8,233.1
		l-359.9,489.1l-144.8,403.2h587.3l425.3-885l327.2-269.9c0,0,147.2-184,226.6-212.7c80.2-28.6,158.7-53.2,217.6-85.9
		s91.6-90,191.4-77.7c0,0,43.4-45,156.2-32.7s144-28.6,144-28.6l-115.3-76.1l-197.9-81.8l-45-49.1l-160.3-16.4l-63.8-65.4
		l-93.2,145.6L3722.6,1677.6z"/>
	<polygon class="st13" points="5271,1564.7 5271,1564.7 5115.5,1665.3 5017.4,1837.1 4886.5,2053.8 4579,2199.4 4246.9,2524.2 
		4149.6,2773.6 4457.9,2417.8 4858.7,2209.2 5205.5,2025.2 5430.5,1816.6 5719.2,1626.1 5567.1,1626.1 	"/>
</g>
<rect id="SVGID_55_" x="63" y="-159.7" class="st1" width="4714.1" height="3142.7"/>
<radialGradient id="SVGID_7_" cx="7489.1973" cy="178.6995" r="1839.7384" gradientTransform="matrix(1 0 0 -1 0 2887)" gradientUnits="userSpaceOnUse">
	<stop  offset="0" style="stop-color:#F9FF45"/>
	<stop  offset="1" style="stop-color:#F9FF45;stop-opacity:0"/>
</radialGradient>
<circle class="st15" cx="7489.2" cy="2708.3" r="1839.7"/>
<rect id="SVGID_58_" x="63" y="-159.7" class="st1" width="4714.1" height="3142.7"/>
<linearGradient id="SVGID_8_" gradientUnits="userSpaceOnUse" x1="2336.1028" y1="-613.15" x2="2336.1028" y2="886.0731" gradientTransform="matrix(1 0 0 -1 0 2887)">
	<stop  offset="0" style="stop-color:#3D6564"/>
	<stop  offset="1" style="stop-color:#0F2C30"/>
</linearGradient>
<path class="st16" d="M4669.2,2816.5c0,0-26.8-307.1-42-357.8c-15.2-50.7-50.7-157.2-50.7-157.2s-57.2,81.8-71,107.9
	c-13,26.8-59.4,59.4-59.4,59.4s-35.5-35.5-44.2-71c-8.7-35.5-29-84-29-84s2.2,2.2-10.9,24.6c-13,22.5-24.6,24.6-31.1,55
	c-6.5,31.1-26.8,48.5-26.8,48.5l-44.2-44.2l-31.1,4.3l-35.5-4.3c0,0,0,8.7-19.6-22.5s-17.4-75.3-17.4-75.3l-13-44.2
	c0,0-8.7,17.4-19.6,31.1c-10.9,13-13,15.2-19.6,44.2c-6.5,29-42,66.6-42,66.6l-26.8,33.3c0,0-26.8-35.5-35.5-48.5
	c-8.7-13-10.9-71-10.9-71l-15.2-55l-31.1-86.2c0,0-26.8,46.4-26.8,68.8s-17.4,66.6-29,77.5c-10.9,10.9-10.9,66.6-10.9,66.6
	l-39.8,31.1c0,0,13-31.1,0-66.6c-13-35.5-26.8-75.3-26.8-75.3v-68.8c0,0-22.5,4.3-31.1,26.8c-8.7,22.5-8.7,61.6-13,68.8
	c-4.3,6.5-46.4,59.4-46.4,59.4l-8.7,29c0,0-37.7-88.4-61.6-101.4c-24.6-13-44.2-2.2-50.7-33.3c-6.5-31.1-19.6-90.5-19.6-90.5
	s-24.6-17.4-31.1,19.6c-6.5,37.7-39.8,97-39.8,97s-19.6,17.4-19.6,24.6s-26.8-42-26.8-42l-37.7-90.5c0,0,15.2-92.7,0-94.9
	c-15.2-2.2-37.7,35.5-37.7,35.5s-24.6,71-42,97c-17.4,26.8-17.4,115.2-17.4,115.2l-39.8,29l-23.9,42c0,0-9.4-42-13.8-48.5
	c-4.3-6.5-50-17.4-66.6-42c-17.4-24.6-27.5-48.5-27.5-48.5s-38.4-75.3-47.1-66.6c-8.7,8.7-11.6,52.9-11.6,52.9l-26.1,50.7
	l-29.7,26.8l-40.6-44.2c0,0-2.2-26.8-18.1-37.7c-15.9-10.9-69.5-66.6-69.5-66.6s0.7-64.5-12.3-94.9c-13-30.4-12.3-86.2-12.3-86.2
	s-23.9,4.3-26.8,26.8c-2.9,22.5-16.7,75.3-23.9,92.7c-7.2,17.4-33.3,61.6-35.5,73.1c-2.9,10.9-26.1,81.8-26.1,81.8v-61.6l-25.3-22.5
	l-28.2-39.8c0,0-49.2-31.1-47.8-42c1.4-10.9-11.6,2.2-18.1-46.4s-10.1-101.4-19.6-117.3c-9.4-15.2,20.3-68.8,0-71
	s-33.3,42-37.7,86.2c-4.3,44.2,7.2,75.3-17.4,101.4c-24.6,26.8-18.8,84-24.6,90.5c-6.5,6.5-56.5,48.5-56.5,48.5l-21-90.5
	c0,0-33.3-86.2-36.9-99.2c-3.6-13-17.4-79.7-23.9-88.4c-6.5-8.7-19.6-39.8-19.6,19.6s26.8,86.2-8.7,110.8
	c-35.5,24.6-46.4,99.2-46.4,99.2l-24.6,46.4l-59.4,4.3l-23.9-4.3v-52.9l-37.7-71c0,0,0-117.3-13-130.4c-13-13-19.6,63.7-19.6,63.7
	l-29,31.1c0,0-22.5,97-57.2,117.3c-35.5,19.6-46.4,26.8-46.4,42c0,15.2-48.5-86.2-37.7-143.4c10.9-57.2,3.6-75.3-1.4-103.6
	c-5.1-29-22.5-165.8-22.5-165.8s-6.5,61.6-26.8,81.8c-19.6,19.6-35.5,90.5-33.3,101.4c2.2,10.9,0,61.6-22.5,88.4
	c-22.5,26.8-29,101.4-29,101.4l-22.5,48.5c0,0-15.2-13-33.3-59.4c-17.4-46.4-55-63.7-63.7-81.8c-8.7-17.4-26.8-24.6-29-84
	s0-113,0-113s-29,17.4-33.3,44.2c-4.3,26.8,6.5,79.7-10.9,101.4c-17.4,22.5-73.1,94.9-68.8,107.9s-13,42-13,42s4.3-141.2,0-147.7
	c-4.3-6.5-6.5-13-22.5-77.5c-15.2-63.7-24.6-90.5-26.8-99.2s-24.6,44.2-26.8,55c-2.2,10.9-2.2,55-17.4,79.7
	c-15.2,24.6-61.6,81.8-71,113c-8.7,31.1-22.5,73.1-31.1,84c-8.7,10.9-50.7,26.8-50.7,26.8s-2.2-101.4,0-110.8
	c2.2-8.7-26.8-90.5-33.3-110.8c-6.5-19.6-29-90.5-42-121.7c-13-31.1-42-107.9-42-107.9s-22.5,8.7-24.6,44.2
	c-2.2,35.5,6.5,79.7,0,110.8c-6.5,31.1-37.7,39.8-48.5,50.7c-10.9,10.9-84,115.2-84,115.2l-15.2,50.7l-88.4-13
	c0,0-8.7-77.5-26.8-139.1s-57.9-161.5-57.9-161.5s-43.5-63-57.9-146.3c-14.5-83.3-65.2-144.8-72.4-155.7
	c-7.2-10.9-55-122.4-55-122.4s-10.9,54.3-39.8,86.9c-29,32.6-25.3,86.9-29,115.9s-21.7,108.6-21.7,108.6l21.7,144.8
	c0,0,14.5,75.3-21.7,108.6s-57.9,90.5-57.9,90.5l-39.8-126.7l-101.4-76l-137.6,123.1l-47.1,7.2c0,0-54.3-105-57.9-115.9
	S3,1602.7,3,1602.7v1310.9h4666.2V2816.5z"/>
<linearGradient id="SVGID_9_" gradientUnits="userSpaceOnUse" x1="5017.5322" y1="-597.2438" x2="5017.5322" y2="890.7795" gradientTransform="matrix(-1 0 0 -1 10321.0645 2887)">
	<stop  offset="0" style="stop-color:#3D6564"/>
	<stop  offset="1" style="stop-color:#0F2C30"/>
</linearGradient>
<path class="st17" d="M2987.9,2902h4631.3V1600.9c0,0-151,222.8-154.5,233.6s-57.5,115-57.5,115l-46.7-7.2l-136.6-122.2l-100.6,75.5
	l-39.5,125.8c0,0-21.6-56.8-57.5-89.9s-21.6-107.8-21.6-107.8l21.6-143.8c0,0-18-79.1-21.6-107.8c-3.6-28.8,0-82.7-28.8-115
	c-28.8-32.3-39.5-86.3-39.5-86.3s-47.4,110.7-54.6,121.5c-7.2,10.8-57.5,71.9-71.9,154.5c-14.4,82.7-57.5,145.2-57.5,145.2
	s-39.5,99.2-57.5,160.3c-18,61.1-26.6,138-26.6,138l-87.7,12.9l-15.1-50.3c0,0-72.6-103.5-83.4-114.3
	c-10.8-10.8-41.7-19.4-48.2-50.3c-6.5-30.9,2.2-74.8,0-110c-2.2-35.2-24.4-43.8-24.4-43.8s-28.8,76.2-41.7,107.1
	c-12.9,30.9-35.2,101.4-41.7,120.8c-6.5,20.1-35.2,101.4-33.1,110c2.2,9.3,0,110,0,110s-41.7-15.8-50.3-26.6
	c-8.6-10.8-22.3-52.5-30.9-83.4c-9.3-30.9-55.3-87.7-70.4-112.1c-15.1-24.4-15.1-68.3-17.3-79.1c-2.2-10.8-24.4-63.3-26.6-54.6
	c-2.2,8.6-11.5,35.2-26.6,98.5c-15.8,64-18,70.4-22.3,76.9s0,146.6,0,146.6s-17.3-28.8-12.9-41.7c4.3-12.9-51-84.8-68.3-107.1
	c-17.3-21.6-6.5-74-10.8-100.6c-4.3-26.6-33.1-43.8-33.1-43.8s2.2,53.2,0,112.1c-2.2,58.9-20.1,66.1-28.8,83.4
	c-8.6,18-46,35.2-63.3,81.2c-18,46-33.1,58.9-33.1,58.9l-22.3-48.2c0,0-6.5-74-28.8-100.6c-22.3-26.6-24.4-76.9-22.3-87.7
	c2.2-10.8-13.7-81.2-33.1-100.6c-20.1-20.1-26.6-81.2-26.6-81.2s-17.3,135.9-22.3,164.6c-5,28-12.2,46-1.4,102.8
	s-37.4,157.4-37.4,142.3c0-15.1-10.8-22.3-46-41.7c-34.5-20.1-56.8-116.4-56.8-116.4l-28.8-30.9c0,0-6.5-76.2-19.4-63.3
	s-12.9,129.4-12.9,129.4l-37.4,70.4v52.5l-23.7,4.3l-58.9-4.3l-24.4-46c0,0-10.8-74-46-98.5c-35.2-24.4-8.6-51-8.6-110
	s-12.9-28-19.4-19.4c-6.5,8.6-20.1,74.8-23.7,87.7c-3.6,12.9-36.7,98.5-36.7,98.5l-20.8,89.9c0,0-49.6-41.7-56.1-48.2
	c-5.8-6.5,0-63.3-24.4-89.9c-24.4-25.9-12.9-56.8-17.3-100.6c-4.3-43.8-17.3-87.7-37.4-85.5c-20.1,2.2,9.3,55.3,0,70.4
	c-9.3,15.8-12.9,68.3-19.4,116.4c-6.5,48.2-19.4,35.2-18,46c1.4,10.8-47.4,41.7-47.4,41.7l-28,39.5l-25.2,22.3v61.1
	c0,0-23-70.4-25.9-81.2c-2.2-11.5-28-55.3-35.2-72.6c-7.2-17.3-20.8-69.7-23.7-92c-2.9-22.3-26.6-26.6-26.6-26.6s0.7,55.3-12.2,85.5
	c-12.9,30.2-12.2,94.2-12.2,94.2s-53.2,55.3-69,66.1s-18,37.4-18,37.4l-40.3,43.8L4575,2286l-25.9-50.3c0,0-2.9-43.8-11.5-52.5
	c-8.6-8.6-46.7,66.1-46.7,66.1s-10.1,23.7-27.3,48.2c-16.5,24.4-61.8,35.2-66.1,41.7s-13.7,48.2-13.7,48.2l-23.7-41.7l-39.5-28.8
	c0,0,0-87.7-17.3-114.3c-17.3-25.9-41.7-96.3-41.7-96.3s-22.3-37.4-37.4-35.2c-15.1,2.2,0,94.2,0,94.2l-37.4,89.9
	c0,0-26.6,48.9-26.6,41.7s-19.4-24.4-19.4-24.4s-33.1-58.9-39.5-96.3c-6.5-36.7-30.9-19.4-30.9-19.4s-12.9,58.9-19.4,89.9
	c-6.5,30.9-25.9,20.1-50.3,33.1c-23.7,12.9-61.1,100.6-61.1,100.6l-8.6-28.8c0,0-41.7-52.5-46-58.9c-4.3-7.2-4.3-46-12.9-68.3
	s-30.9-26.6-30.9-26.6v68.3c0,0-13.7,39.5-26.6,74.8c-12.9,35.2,0,66.1,0,66.1l-39.5-30.9c0,0,0-55.3-10.8-66.1
	c-11.5-10.8-28.8-54.6-28.8-76.9c0-22.3-26.6-68.3-26.6-68.3l-30.9,85.5l-15.1,54.6c0,0-2.2,57.5-10.8,70.4
	c-8.6,12.9-35.2,48.2-35.2,48.2l-26.6-33.1c0,0-35.2-37.4-41.7-66.1c-6.5-28.8-8.6-30.9-19.4-43.8c-10.8-13.7-19.4-30.9-19.4-30.9
	l-12.9,43.8c0,0,2.2,43.8-17.3,74.8c-19.4,30.9-19.4,22.3-19.4,22.3l-35.2,4.3l-30.9-4.3l-43.8,43.8c0,0-20.1-17.3-26.6-48.2
	c-6.5-30.2-18-32.3-30.9-54.6c-12.9-22.3-10.8-24.4-10.8-24.4s-20.1,48.2-28.8,83.4c-8.6,35.2-43.8,70.4-43.8,70.4
	s-46-32.3-58.9-58.9c-13.7-25.9-70.4-107.1-70.4-107.1s-35.2,105.7-50.3,156c-15.1,50.3-41.7,355.1-41.7,355.1V2902z"/>
<rect id="SVGID_61_" x="63" y="-159.7" class="st1" width="4714.1" height="3142.7"/>
<radialGradient id="SVGID_10_" cx="742.0231" cy="2571.4175" r="3352.0068" gradientTransform="matrix(1 0 0 -1 0 2887)" gradientUnits="userSpaceOnUse">
	<stop  offset="0" style="stop-color:#F9FF45"/>
	<stop  offset="1" style="stop-color:#F9FF45;stop-opacity:0"/>
</radialGradient>
<circle class="st18" cx="742" cy="315.6" r="3352"/>
<rect id="SVGID_64_" x="63" y="-159.7" class="st1" width="4714.1" height="3142.7"/>
<g>
	<path class="st19" d="M2953,665.3c0,0-49.9-22.4-73.6,0c0,0,46.1-6.2,73.6,27.4c27.4-33.7,73.6-27.4,73.6-27.4
		C3002.8,642.8,2953,665.3,2953,665.3z"/>
	<path class="st19" d="M1632.6,438.4c0,0-62.3-27.4-92.3,0c0,0,58.6-8.7,92.3,34.9c34.9-43.6,92.3-34.9,92.3-34.9
		C1694.9,410.9,1632.6,438.4,1632.6,438.4z"/>
	<path class="st19" d="M3588.8,925.9c0,0-83.5-37.4-123.4,0c0,0,77.3-11.2,123.4,46.1c46.1-57.4,123.4-46.1,123.4-46.1
		C3671.1,888.5,3588.8,925.9,3588.8,925.9z"/>
	<path class="st19" d="M3259.7,711.4c0,0-28.7-12.5-43.6,0c0,0,27.4-3.7,43.6,16.2c16.2-19.9,43.6-16.2,43.6-16.2
		C3288.4,697.7,3259.7,711.4,3259.7,711.4z"/>
	<path class="st19" d="M4373.1,711.4c0,0-27.4-12.5-39.9,0c0,0,24.9-3.7,39.9,15c15-18.7,39.9-15,39.9-15
		C4400.5,699,4373.1,711.4,4373.1,711.4z"/>
	<path class="st19" d="M2232.3,625.4c0,0-27.4-12.5-39.9,0c0,0,24.9-3.7,39.9,15c15-18.7,39.9-15,39.9-15
		C2259.7,612.9,2232.3,625.4,2232.3,625.4z"/>
	<path class="st19" d="M1292.2,904.7c0,0-28.7-12.5-43.6,0c0,0,27.4-3.7,43.6,16.2c16.2-19.9,43.6-16.2,43.6-16.2
		C1320.9,891,1292.2,904.7,1292.2,904.7z"/>
</g>
<rect id="SVGID_66_" x="63" y="-159.7" class="st1" width="4714.1" height="3142.7"/>
<linearGradient id="SVGID_11_" gradientUnits="userSpaceOnUse" x1="3827.8301" y1="-695.789" x2="3827.8301" y2="806.643" gradientTransform="matrix(1 0 0 -1 0 2887)">
	<stop  offset="0" style="stop-color:#214244"/>
	<stop  offset="1" style="stop-color:#0A1E21"/>
</linearGradient>
<path class="st20" d="M2639.6,2828.4c0,0-126.9-31.9-160.1-42.7c-31.9-10.2-100.1-35.7-100.1-35.7l-65.1-10.8l-59.3-55.5l-70.2,8.3
	c0,0-35.7-70.2-37-81.6c-1.3-10.8-26.8-44-26.8-44s-63.1,37-82.9,26.8c-19.8-9.6-35.1-7.7-35.1-7.7l-28.7-52.9c0,0-14.7-4.5-10.8-51
	c4.5-46.6-14.7-97.6-14.7-97.6l-30-14.7l-46.6,38.3c0,0,14.7,91.2,14.7,97.6s-14.7,81-14.7,81h-35.1l-61.9,19.8l-46.6,36.4
	l-19.1,3.8l-38.3-40.2c0,0,6.4,44-23.6-19.8c-30-63.8-12.8-65.7-30-63.8c-17.2,1.9-40.2,33.8-40.2,33.8l-27.4-65.7H1531l-33.8-57.4
	c0,0-19.1,4.5-23.6,12.8c-4.5,8.3-38.3,131.4-38.3,131.4s-8.3,47.2-14.7,48.5s-40.2,35.7-40.2,35.7l-17.2,54.9l-108.4-8.3l-95.7-4.5
	l-25.5-14.7l-57.4-102.1l10.8-140.3l-28.1-21.7c0,0-27.4,8.3-27.4-40.2c0-49.1-72.1-44.7-59.3-119.3
	c12.8-74.6,52.9-148.6,40.2-183.1c-12.8-33.8-87.4-82.9-102.1-189.4c-14.7-106.5-14.7-121.2-46.6-138.4s-30-70.2-30-119.3
	c0-49.1-21-38.3-36.4-91.2c-14.7-52.9-70.2-185-70.2-185s-19.1,78.5-30,106.5c-10.8,27.4-17.2,108.4-17.2,144.8
	c0,36.4-27.4,84.8-27.4,84.8c-27.4,23.6-14.7,104-14.7,153.1c0,49.1,51,236,21,274.3c-30,38.3-44.7,51-42.7,70.2
	c1.9,19.1,27.4,70.2,0,123.1c-27.4,52.9-40.2,89.3-44.7,132s-38.3,147.3-38.3,147.3s-38.3-64.4-33.8-104.6
	c4.5-40.2,10.8-65.7,10.8-99.5c0-33.8,14.7-44.7,21-81c6.4-36.4,10.8-112.9,10.8-112.9s-10.8-59.3-10.8-127.6
	c0-68.3-19.1-161.4-19.1-161.4s-21-61.9-40.2-93.8c-19.1-31.9-46.6-25.5-44.7-82.9c1.9-57.4,6.4-142.2-12.8-178.6
	c-19.1-36.4-44.7-42.7-46.6-84.8c-1.9-42.7,21-123.1,0-170.3c-21-46.6,25.5-57.4,0-104c-25.5-46.6-46.6-40.2-59.3-74.6
	c-12.8-33.8-38.3-52.9-38.3-52.9V1013c0,0-25.5,8.3-30,52.9c-4.5,44.7-21,63.8-19.1,87.4s25.5,114.8-10.8,163.9
	S164,1468.4,164,1468.4s-14.7,123.1-19.1,138.4c-4.5,14.7-25.5,376.3-52.9,414.6s-57.4,112.9-57.4,112.9L2.7,2317.4v584.9H7653
	v-960.6c0,0-33.8-104-57.4-180.5c-23.6-76.5-6.4-87.4-31.9-127.6c-25.5-40.2-25.5-127.6-42.7-140.3c-17.2-12.8-12.8,84.8-30,116.7
	c-17.2,31.9-8.3,134-21,159.5c-12.8,25.5-17.2,87.4-17.2,87.4s-30,10.8-46.6,8.3c-17.2-1.9-6.4,31.9-25.5,57.4
	c-19.1,25.5-49.1,51-49.1,51s-6.4,61.9-21,89.3c-14.7,27.4-14.7,63.8-21,106.5c-6.4,42.7-4.5,78.5-17.2,61.9
	c-12.8-17.2-8.3-49.1-8.3-49.1s-25.5-4.5-25.5-27.4c0-23.6,0-81,0-81s-33.8-63.8-44.7-116.7c-10.8-52.9-4.5-104-19.1-108.4
	c-14.7-4.5-4.5,102.1-17.2,119.3s-42.7,89.3-44.7,121.2c-1.9,31.9,4.5,84.8-4.5,102.1c-8.3,17.2-30,46.6-27.4,106.5
	s10.8,91.2-10.8,121.2c-21,30-57.4,61.9-61.9,93.8c-4.5,31.9-12.8,76.5-12.8,76.5s-8.3-51-19.1-89.3c-10.8-38.3-31.9-89.3-31.9-89.3
	s-27.4-100.1-46.6-129.5c-19.1-30-8.3-102.1-23.6-108.4c-14.7-6.4-27.4,78.5-27.4,78.5s-42.7,81-49.1,127.6
	c-6.4,46.6-10.8,78.5-10.8,78.5s-81,10.8-95.7,42.7c-14.7,31.9-33.8,67.6-33.8,67.6s-25.5,8.3-33.8,31.3
	c-8.3,22.3-31.9,58.7-31.9,58.7l-51,0.6l-44.7,4.5c0,0-121.2,54.9-135.9,59.3c-14.7,4.5-17.2-57.4-30-73.4s-12.8-58-12.8-58
	s-14.7,6.4-17.2,37c-1.9,30.6-10.8,68.9-10.8,68.9l-93.8,46.6c0,0-127.6,25.5-155,31.9c-27.4,6.4-153.1,55.5-153.1,55.5l-63.8,14.7
	c0,0-162,6.4-174.8,8.3c-12.1,1.9-2912.9-10.8-2912.9-10.8L2639.6,2828.4z"/>
<g id="DESIGNED_BY_FREEPIK">
</g>
</svg>
