<?xml version="1.0" encoding="utf-8"?>
<!-- Generator: Adobe Illustrator 23.0.2, SVG Export Plug-In . SVG Version: 6.00 Build 0)  -->
<svg version="1.1" id="Layer_1" xmlns="http://www.w3.org/2000/svg" xmlns:xlink="http://www.w3.org/1999/xlink" x="0px" y="0px"
	 viewBox="0 0 750 408.4" style="enable-background:new 0 0 750 408.4;" xml:space="preserve">
<style type="text/css">
	.st0{fill:url(#SVGID_1_);}
	.st1{clip-path:url(#SVGID_7_);}
	.st2{fill:url(#SVGID_8_);}
	.st3{opacity:0.59;fill:#201352;enable-background:new    ;}
	.st4{clip-path:url(#SVGID_10_);}
	.st5{fill:url(#SVGID_11_);}
	.st6{clip-path:url(#SVGID_13_);}
	.st7{fill:url(#SVGID_14_);}
	.st8{opacity:0.32;fill:#201352;enable-background:new    ;}
	.st9{clip-path:url(#SVGID_16_);}
	.st10{fill:url(#SVGID_17_);}
	.st11{opacity:8.000000e-02;fill:#201352;enable-background:new    ;}
	.st12{clip-path:url(#SVGID_19_);}
	.st13{fill:url(#SVGID_20_);}
	.st14{clip-path:url(#SVGID_22_);}
	.st15{opacity:0.61;fill:url(#SVGID_23_);enable-background:new    ;}
</style>
<title>testing</title>
<g id="BACKGROUND">
	
		<linearGradient id="SVGID_1_" gradientUnits="userSpaceOnUse" x1="375" y1="546.93" x2="375" y2="306.94" gradientTransform="matrix(1 0 0 1 0 -334.34)">
		<stop  offset="0" style="stop-color:#FFF9B1"/>
		<stop  offset="0.19" style="stop-color:#F6F8AF"/>
		<stop  offset="0.5" style="stop-color:#DEF5AB"/>
		<stop  offset="0.88" style="stop-color:#B6F1A4"/>
		<stop  offset="1" style="stop-color:#A9EFA2"/>
	</linearGradient>
	<rect y="0" class="st0" width="750" height="500"/>
</g>
<g id="OBJECTS">
	<g>
		<defs>
			<rect id="SVGID_2_" y="0" width="750" height="500"/>
		</defs>
		<clipPath id="SVGID_3_">
			<use xlink:href="#SVGID_2_"  style="overflow:visible;"/>
		</clipPath>
	</g>
	<g>
		<defs>
			
				<rect id="SVGID_4_" x="-64.5" y="-401.9" transform="matrix(0.158 -0.9874 0.9874 0.158 411.4753 178.6362)" width="750" height="500"/>
		</defs>
		<clipPath id="SVGID_5_">
			<use xlink:href="#SVGID_4_"  style="overflow:visible;"/>
		</clipPath>
	</g>
	<g>
		<defs>
			<rect id="SVGID_6_" y="0" width="750" height="500"/>
		</defs>
		<clipPath id="SVGID_7_">
			<use xlink:href="#SVGID_6_"  style="overflow:visible;"/>
		</clipPath>
		<g class="st1">
			
				<linearGradient id="SVGID_8_" gradientUnits="userSpaceOnUse" x1="383.35" y1="635.34" x2="383.35" y2="477.96" gradientTransform="matrix(1 0 0 1 0 -334.34)">
				<stop  offset="0" style="stop-color:#FFF9D1"/>
				<stop  offset="0.19" style="stop-color:#F6F8CC"/>
				<stop  offset="0.5" style="stop-color:#DEF5BF"/>
				<stop  offset="0.88" style="stop-color:#B6F1A9"/>
				<stop  offset="1" style="stop-color:#A9EFA2"/>
			</linearGradient>
			<path class="st2" d="M495.3,220.3c0,0-11.7-13.7-14.7-21.3s-5.7-21-14.7-24.3S446,167,446,167l-14.5-10.7l-6.7-5h-8
				c-2.7,2.3-6.1,3.7-9.7,4c-5.7,0.3-21,7.7-21,7.7s-15,10.3-17.7,11.7s-23,7.3-23,7.3l-30,9.7l-40.3,22.7l-3.7,55.3h223.7v-49.4
				H495.3z"/>
			<path class="st3" d="M442.5,170c5.5,3.5,19.5,16,18.5,22s-14.9,16-14.9,16l-6.1,14.5L414,235l-42.6,34.7h123.9v-49.3
				c0,0-11.7-13.7-14.7-21.3s-5.7-21-14.7-24.3s-19.9-7.7-19.9-7.7l-14.5-10.7C431.7,156.3,437,166.5,442.5,170z"/>
		</g>
	</g>
	<g>
		<defs>
			<rect id="SVGID_9_" y="0" width="750" height="500"/>
		</defs>
		<clipPath id="SVGID_10_">
			<use xlink:href="#SVGID_9_"  style="overflow:visible;"/>
		</clipPath>
		<g class="st4">
			
				<linearGradient id="SVGID_11_" gradientUnits="userSpaceOnUse" x1="577.15" y1="666.34" x2="577.15" y2="445.96" gradientTransform="matrix(1 0 0 1 0 -334.34)">
				<stop  offset="0" style="stop-color:#E1F6C1"/>
				<stop  offset="0.27" style="stop-color:#C5E9B5"/>
				<stop  offset="0.84" style="stop-color:#7FC897"/>
				<stop  offset="1" style="stop-color:#6BBF8E"/>
			</linearGradient>
			<path class="st5" d="M774.7,131c0,0-31.3,20.7-40.7,26s-30.7,4.7-30.7,4.7h-10l-10.7-7.3l-20.7,14l-27.3,20l-28-21.3l-4.7-8
				l-10.7,2l-54.7,31.3L528,199h-15.3l-18-4l-53.3,38L375,273.7V339h404.3L774.7,131z"/>
			<path class="st3" d="M599,197.5L585.5,208l-11,19.5v16.1l-14,23.9l-9.2,16.2l34.2-33.7l21.4-32.3l27.8-29.3l-28-21.3
				C608.5,180.5,599,197.5,599,197.5z"/>
			<path class="st3" d="M734,157c-0.8,0.4-1.6,0.8-2.5,1.2c0,0-12.5,15.8-21.5,22.8s-36,26.5-36,26.5s-16.5,27.5-27.5,34
				s-45,32.2-45,32.2l-48,65.3h225.8l-4.7-208C774.7,131,743.3,151.7,734,157z"/>
		</g>
	</g>
	<g>
		<defs>
			<rect id="SVGID_12_" y="0" width="750" height="500"/>
		</defs>
		<clipPath id="SVGID_13_">
			<use xlink:href="#SVGID_12_"  style="overflow:visible;"/>
		</clipPath>
		<g class="st6">
			
				<linearGradient id="SVGID_14_" gradientUnits="userSpaceOnUse" x1="310.65" y1="794.34" x2="310.65" y2="545.34" gradientTransform="matrix(1 0 0 1 0 -334.34)">
				<stop  offset="0" style="stop-color:#E1F6C1"/>
				<stop  offset="0.22" style="stop-color:#C5E2B4"/>
				<stop  offset="0.7" style="stop-color:#7FAF93"/>
				<stop  offset="1" style="stop-color:#4F8C7D"/>
			</linearGradient>
			<path class="st7" d="M172.7,154.3h16L228,149l17.3,5.3l65.2,49.3l33,14l95.6,57.3L554,304.2L654,331v59.3H-32.7V237.7
				c0,0,48.7-27.3,64.7-30s64-13.3,64-13.3l61.3-26L172.7,154.3z"/>
			<path class="st8" d="M554,304.2L439.1,275l-95.6-57.3l-33-14l-32.9-24.9l0,0l26.2,35.5l71.1,44c0,0,39.2,33.1,40.4,34.9
				s153.9,15.1,153.9,15.1L554,304.2z"/>
		</g>
	</g>
	<g>
		<defs>
			<rect id="SVGID_15_" y="0" width="750" height="500"/>
		</defs>
		<clipPath id="SVGID_16_">
			<use xlink:href="#SVGID_15_"  style="overflow:visible;"/>
		</clipPath>
		<g class="st9">
			
				<linearGradient id="SVGID_17_" gradientUnits="userSpaceOnUse" x1="208.05" y1="875.34" x2="208.05" y2="646.78" gradientTransform="matrix(1 0 0 1 0 -334.34)">
				<stop  offset="0" style="stop-color:#ABCDAC"/>
				<stop  offset="0.66" style="stop-color:#62958E"/>
				<stop  offset="1" style="stop-color:#3A767D"/>
			</linearGradient>
			<path class="st10" d="M446.1,325l-105.5-12.5l-81.1-19l-26.5-26l-21.7-8.5L180,229.7l-36.7-15.3H116c0,0-47.7,21.5-60.7,23.3
				S19.7,250,19.7,250L-30,267.5l20.3,30.8v143.3h437.1L446.1,325z"/>
			<polygon class="st11" points="201,314.5 180,323 100,372 100,441.7 427.5,441.7 446.1,325 340.6,312.5 259.5,293.5 233,267.5 
				216.5,283.7 			"/>
		</g>
	</g>
	<g>
		<defs>
			<rect id="SVGID_18_" y="0" width="750" height="500"/>
		</defs>
		<clipPath id="SVGID_19_">
			<use xlink:href="#SVGID_18_"  style="overflow:visible;"/>
		</clipPath>
		<g class="st12">
			
				<linearGradient id="SVGID_20_" gradientUnits="userSpaceOnUse" x1="381.15" y1="914.68" x2="381.15" y2="678.68" gradientTransform="matrix(1 0 0 1 0 -334.34)">
				<stop  offset="0" style="stop-color:#6E9E92"/>
				<stop  offset="1" style="stop-color:#23484D"/>
			</linearGradient>
			<path class="st13" d="M762.3,206.7L701.6,256c0,0-69.3,11.3-81,10.7s-25.7,8-25.7,8L531.6,304H513l-45.3-9.3h-15.3L417.1,308
				h-17.3l-7.7,3.3L378,302l-24.2-10l-5.5-6l-19.6-2l-7.8-8l-13.4,2.7L277,294l-16,5.3l-38.7,8L187.6,328c0,0-55,24.7-72.9,27.4
				S48.3,358,48.3,358L0,368.5V506h762.3V206.7z"/>
			<path class="st11" d="M307.2,318L283,328c0,0-8.5,18.5-17.5,26S222,376,222,376l-26.5,28.5l-44,59.8l-17.7,49.3h71.8l52-108.2
				l40-33c0,0,18-22.5,27.7-26s19.4-6.5,26.6-10.5s11.2-11,23.4-9.5c0,0,5.3-5.5,19.1-4s17.6-3.5,17.6-3.5l-14.1-9.3l-24.2-10
				l-5.5-6l-19.6-2l-7.8-8l-11.4,17.8L307.2,318z"/>
			<polygon class="st11" points="496.5,304.2 496.5,304.2 477.5,316.5 465.5,337.5 449.5,364 411.9,381.8 371.3,421.5 359.4,452 
				397.1,408.5 446.1,383 488.5,360.5 516,335 551.3,311.7 532.7,311.7 			"/>
		</g>
	</g>
	<g>
		<defs>
			<rect id="SVGID_21_" y="0" width="750" height="500"/>
		</defs>
		<clipPath id="SVGID_22_">
			<use xlink:href="#SVGID_21_"  style="overflow:visible;"/>
		</clipPath>
		<g class="st14">
			
				<radialGradient id="SVGID_23_" cx="110.1" cy="427.14" r="533.3" gradientTransform="matrix(1 0 0 1 0 -334.34)" gradientUnits="userSpaceOnUse">
				<stop  offset="0" style="stop-color:#F9FF45"/>
				<stop  offset="1" style="stop-color:#F9FF45;stop-opacity:0"/>
			</radialGradient>
			<circle class="st15" cx="110.1" cy="92.8" r="533.3"/>
		</g>
	</g>
	<g>
		<defs>
			<rect id="SVGID_24_" y="0" width="750" height="500"/>
		</defs>
		<clipPath id="SVGID_25_">
			<use xlink:href="#SVGID_24_"  style="overflow:visible;"/>
		</clipPath>
	</g>
</g>
</svg>
