<?xml version="1.0" encoding="utf-8"?>
<!-- Generator: Adobe Illustrator 23.0.2, SVG Export Plug-In . SVG Version: 6.00 Build 0)  -->
<svg version="1.1" xmlns="http://www.w3.org/2000/svg" xmlns:xlink="http://www.w3.org/1999/xlink" x="0px" y="0px"
	 viewBox="0 0 750 500" style="enable-background:new 0 0 750 500;" xml:space="preserve">
<style type="text/css">
	.st0{fill:url(#SVGID_1_);}
	.st1{opacity:0.67;clip-path:url(#SVGID_3_);}
	.st2{opacity:0.43;fill:#FFFFFF;}
	.st3{opacity:0.58;fill:#FFFFFF;}
	.st4{opacity:0.65;clip-path:url(#SVGID_3_);fill:#FFFFFF;}
	.st5{clip-path:url(#SVGID_3_);}
	.st6{fill:url(#SVGID_4_);}
	.st7{opacity:0.59;fill:#201352;}
	.st8{opacity:0.37;fill:#FFFEF7;}
	.st9{fill:url(#SVGID_5_);}
	.st10{fill:url(#SVGID_6_);}
	.st11{opacity:0.32;fill:#201352;}
	.st12{fill:url(#SVGID_7_);}
	.st13{opacity:8.000000e-02;fill:#201352;}
	.st14{fill:url(#SVGID_8_);}
	.st15{opacity:0.61;clip-path:url(#SVGID_3_);fill:url(#SVGID_9_);}
	.st16{clip-path:url(#SVGID_3_);fill:url(#SVGID_10_);}
	.st17{opacity:0.61;clip-path:url(#SVGID_3_);fill:url(#SVGID_11_);}
	.st18{fill:#57B587;}
	.st19{clip-path:url(#SVGID_3_);fill:url(#SVGID_12_);}
</style>
<g id="BACKGROUND">
	<linearGradient id="SVGID_1_" gradientUnits="userSpaceOnUse" x1="375" y1="212.5925" x2="375" y2="-27.4">
		<stop  offset="0" style="stop-color:#FFF9B1"/>
		<stop  offset="0.1888" style="stop-color:#F6F8AF"/>
		<stop  offset="0.4967" style="stop-color:#DEF5AB"/>
		<stop  offset="0.8832" style="stop-color:#B6F1A4"/>
		<stop  offset="1" style="stop-color:#A9EFA2"/>
	</linearGradient>
	<rect class="st0" width="750" height="500"/>
</g>
<g id="OBJECTS">
	<g>
		<defs>
			<rect id="SVGID_2_" width="750" height="500"/>
		</defs>
		<clipPath id="SVGID_3_">
			<use xlink:href="#SVGID_2_"  style="overflow:visible;"/>
		</clipPath>
		<g class="st1">
			<path class="st2" d="M-9.7,80.3c0,0,21.7,1.3,47.7,5.3s79.3,1.3,100,4.7c20.7,3.3,25.3,11.3,47.3,14c22,2.7,65.3,6,76,14.7
				c10.7,8.7,18,16.7,36.7,18.7c18.7,2,40,1.3,48,6.7c8,5.3,31.5,2,25.4,7s-59.4-2.9-73.4,3c-14,6,4.7,16,17.7,18.7
				c13,2.7,71.7-6,89.7,0c18,6,38.7,11.3,63.3,10.7c24.7-0.7,37.7-5.7,55.3,0.1c17.6,5.8,66.1,3.4,84.7,7.9
				c18.6,4.5,45.3,3.3,45.3,3.3v55H-9.7V80.3z"/>
			<path class="st3" d="M756.7,116c0,0-71.2,0-96.7,0s-42,5-53.5,3.5s-34.8-0.4-37.2,0.3c-2.3,0.7-33.8,0-33.8,0s20-11.8,30-11.8
				s45-2.5,62.5-6s22.5-15.5,42.5-13.5s27.5,7.5,48,4s38.2-7.5,38.2-7.5V116z"/>
			<path class="st3" d="M476.5,85c0,0,40-2,51.5,0s26.5,0.5,34.5,0s23.5-0.9,23.5-0.9s-7.5-3.6-23.5-6.6s-26-7-38.5-5
				S476.5,85,476.5,85z"/>
			<path class="st3" d="M165,55.7c0,0,68,2.3,84.3,2c16.3-0.3,30.7-2.3,48.3-2c17.7,0.3,33,1.3,43.7,1c10.7-0.3,24.3-1,24.3-1
				s-16.3-3.3-26.7-5c-10.3-1.7-17-0.7-27-4.3c-10-3.7-9-5.7-21-5c-12,0.7-8.7,3.3-21.3,1.7c-12.7-1.7-20.3-7.7-31.3-5
				s-17.3,6.3-31.7,6.7C192.3,45,172.7,49.7,165,55.7z"/>
		</g>
		<ellipse transform="matrix(0.158 -0.9874 0.9874 0.158 4.3939 178.8197)" class="st4" cx="107.1" cy="86.8" rx="42.7" ry="42.7"/>
		<g class="st5">
			<linearGradient id="SVGID_4_" gradientUnits="userSpaceOnUse" x1="383.5" y1="301.0001" x2="383.5" y2="143.6202">
				<stop  offset="0" style="stop-color:#FFF9D1"/>
				<stop  offset="0.1888" style="stop-color:#F6F8CC"/>
				<stop  offset="0.4967" style="stop-color:#DEF5BF"/>
				<stop  offset="0.8832" style="stop-color:#B6F1A9"/>
				<stop  offset="1" style="stop-color:#A9EFA2"/>
			</linearGradient>
			<path class="st6" d="M495.3,220.3c0,0-11.7-13.7-14.7-21.3s-5.7-21-14.7-24.3c-9-3.3-19.9-7.7-19.9-7.7l-14.5-10.7l-6.7-5h-8
				c0,0-4,3.7-9.7,4c-5.7,0.3-21,7.7-21,7.7s-15,10.3-17.7,11.7c-2.7,1.3-23,7.3-23,7.3l-30,9.7l-40.3,22.7l-3.7,55.3h223.7V220.3z"
				/>
			<path class="st7" d="M442.5,170c5.5,3.5,19.5,16,18.5,22s-14.9,16-14.9,16l-6.1,14.5L414,235l-42.6,34.7h123.9v-49.3
				c0,0-11.7-13.7-14.7-21.3c-3-7.7-5.7-21-14.7-24.3c-9-3.3-19.9-7.7-19.9-7.7l-14.5-10.7C431.7,156.3,437,166.5,442.5,170z"/>
			<path class="st8" d="M375,181.3l10.3-6.7l11-11.7l15.5-8.6c-1.3,0.5-2.8,0.9-4.5,1c-5.7,0.3-21,7.7-21,7.7s-15,10.3-17.7,11.7
				c-2.7,1.3-23,7.3-23,7.3l-30,9.7l18-1.3L375,181.3z"/>
		</g>
		<g class="st5">
			<linearGradient id="SVGID_5_" gradientUnits="userSpaceOnUse" x1="577.1666" y1="332" x2="577.1666" y2="111.6156">
				<stop  offset="0" style="stop-color:#E1F6C1"/>
				<stop  offset="0.2686" style="stop-color:#C5E9B5"/>
				<stop  offset="0.8445" style="stop-color:#7FC897"/>
				<stop  offset="1" style="stop-color:#6BBF8E"/>
			</linearGradient>
			<path class="st9" d="M774.7,131c0,0-31.3,20.7-40.7,26c-9.3,5.3-30.7,4.7-30.7,4.7h-10l-10.7-7.3l-20.7,14l-27.3,20l-28-21.3
				l-4.7-8l-10.7,2l-54.7,31.3L528,199h-15.3l-18-4l-53.3,38L375,273.7V339h404.3L774.7,131z"/>
			<path class="st7" d="M599,197.5L585.5,208l-11,19.5v16.1l-14,23.9l-9.2,16.2l34.2-33.7l21.4-32.3l27.8-29.3l-28-21.3
				C608.5,180.5,599,197.5,599,197.5z"/>
			<path class="st7" d="M734,157c-0.8,0.4-1.6,0.8-2.5,1.2c0,0-12.5,15.8-21.5,22.8s-36,26.5-36,26.5s-16.5,27.5-27.5,34
				s-45,32.2-45,32.2l-48,65.3h225.8l-4.7-208C774.7,131,743.3,151.7,734,157z"/>
		</g>
		<g class="st5">
			<linearGradient id="SVGID_6_" gradientUnits="userSpaceOnUse" x1="310.6667" y1="459.9999" x2="310.6667" y2="210.9971">
				<stop  offset="0" style="stop-color:#E1F6C1"/>
				<stop  offset="0.2216" style="stop-color:#C5E2B4"/>
				<stop  offset="0.6963" style="stop-color:#7FAF93"/>
				<stop  offset="1" style="stop-color:#4F8C7D"/>
			</linearGradient>
			<path class="st10" d="M172.7,154.3h16L228,149l17.3,5.3l65.2,49.3l33,14l95.6,57.3L554,304.2L654,331v59.3H-32.7V237.7
				c0,0,48.7-27.3,64.7-30c16-2.7,64-13.3,64-13.3l61.3-26L172.7,154.3z"/>
			<path class="st8" d="M-9.7,230.3l89-16l51.3-23.3l39.3-26l18.7-10.7h-16l-15.3,14l-61.3,26c0,0-48,10.7-64,13.3
				c-16,2.7-64.7,30-64.7,30v13.2L-9.7,230.3z"/>
			<path class="st11" d="M554,304.2L439.1,275l-95.6-57.3l-33-14l-32.9-24.9l0,0l26.2,35.5l71.1,44c0,0,39.2,33.1,40.4,34.9
				c1.3,1.8,153.9,15.1,153.9,15.1L554,304.2z"/>
		</g>
		<g class="st5">
			<linearGradient id="SVGID_7_" gradientUnits="userSpaceOnUse" x1="208.0622" y1="541" x2="208.0622" y2="312.439">
				<stop  offset="0" style="stop-color:#ABCDAC"/>
				<stop  offset="0.6555" style="stop-color:#62958E"/>
				<stop  offset="1" style="stop-color:#3A767D"/>
			</linearGradient>
			<path class="st12" d="M446.1,325l-105.5-12.5l-81.1-19l-26.5-26l-21.7-8.5L180,229.7l-36.7-15.3H116c0,0-47.7,21.5-60.7,23.3
				c-13,1.8-35.6,12.3-35.6,12.3L-30,267.5l20.3,30.8v143.3h437.1L446.1,325z"/>
			<polygon class="st13" points="201,314.5 180,323 100,372 100,441.7 427.5,441.7 446.1,325 340.6,312.5 259.5,293.5 233,267.5 
				216.5,283.7 			"/>
		</g>
		<g class="st5">
			<linearGradient id="SVGID_8_" gradientUnits="userSpaceOnUse" x1="400.8557" y1="588.0002" x2="400.8557" y2="351.9985">
				<stop  offset="0" style="stop-color:#6E9E92"/>
				<stop  offset="1" style="stop-color:#23484D"/>
			</linearGradient>
			<path class="st14" d="M782,214.3l-60.7,49.3c0,0-69.3,11.3-81,10.7c-11.7-0.7-25.7,8-25.7,8l-63.3,29.3h-18.7l-45.3-9.3H472
				l-35.2,13.3h-17.3l-7.7,3.3l-14.1-9.3l-24.2-10l-5.5-6l-19.6-2l-7.8-8l-13.4,2.7l-30.5,15.3l-16,5.3l-38.7,8l-34.7,20.7
				c0,0-55,24.7-72.9,27.4c-17.9,2.6-66.4,2.6-66.4,2.6l-48.3,10.5v137.5H782V214.3z"/>
			<path class="st13" d="M307.2,318L283,328c0,0-8.5,18.5-17.5,26S222,376,222,376l-26.5,28.5l-44,59.8l-17.7,49.3h71.8l52-108.2
				l40-33c0,0,18-22.5,27.7-26c9.8-3.5,19.4-6.5,26.6-10.5s11.2-11,23.4-9.5c0,0,5.3-5.5,19.1-4s17.6-3.5,17.6-3.5l-14.1-9.3
				l-24.2-10l-5.5-6l-19.6-2l-7.8-8l-11.4,17.8L307.2,318z"/>
			<polygon class="st13" points="496.5,304.2 496.5,304.2 477.5,316.5 465.5,337.5 449.5,364 411.9,381.8 371.3,421.5 359.4,452 
				397.1,408.5 446.1,383 488.5,360.5 516,335 551.3,311.7 532.7,311.7 			"/>
		</g>
		<radialGradient id="SVGID_9_" cx="842.2945" cy="452" r="292.6666" gradientUnits="userSpaceOnUse">
			<stop  offset="0" style="stop-color:#F9FF45"/>
			<stop  offset="1" style="stop-color:#F9FF45;stop-opacity:0"/>
		</radialGradient>
		<circle class="st15" cx="842.3" cy="452" r="292.7"/>
		<linearGradient id="SVGID_10_" gradientUnits="userSpaceOnUse" x1="318.1743" y1="601.0001" x2="318.1743" y2="393.9905">
			<stop  offset="0" style="stop-color:#3D6564"/>
			<stop  offset="1" style="stop-color:#0F2C30"/>
		</linearGradient>
		<path class="st16" d="M640.3,506.6c0,0-3.7-42.4-5.8-49.4c-2.1-7-7-21.7-7-21.7s-7.9,11.3-9.8,14.9c-1.8,3.7-8.2,8.2-8.2,8.2
			s-4.9-4.9-6.1-9.8c-1.2-4.9-4-11.6-4-11.6s0.3,0.3-1.5,3.4c-1.8,3.1-3.4,3.4-4.3,7.6c-0.9,4.3-3.7,6.7-3.7,6.7l-6.1-6.1l-4.3,0.6
			l-4.9-0.6c0,0,0,1.2-2.7-3.1c-2.7-4.3-2.4-10.4-2.4-10.4l-1.8-6.1c0,0-1.2,2.4-2.7,4.3c-1.5,1.8-1.8,2.1-2.7,6.1
			c-0.9,4-5.8,9.2-5.8,9.2l-3.7,4.6c0,0-3.7-4.9-4.9-6.7c-1.2-1.8-1.5-9.8-1.5-9.8l-2.1-7.6l-4.3-11.9c0,0-3.7,6.4-3.7,9.5
			c0,3.1-2.4,9.2-4,10.7c-1.5,1.5-1.5,9.2-1.5,9.2l-5.5,4.3c0,0,1.8-4.3,0-9.2c-1.8-4.9-3.7-10.4-3.7-10.4v-9.5c0,0-3.1,0.6-4.3,3.7
			c-1.2,3.1-1.2,8.5-1.8,9.5c-0.6,0.9-6.4,8.2-6.4,8.2l-1.2,4c0,0-5.2-12.2-8.5-14c-3.4-1.8-6.1-0.3-7-4.6
			c-0.9-4.3-2.7-12.5-2.7-12.5s-3.4-2.4-4.3,2.7c-0.9,5.2-5.5,13.4-5.5,13.4s-2.7,2.4-2.7,3.4s-3.7-5.8-3.7-5.8l-5.2-12.5
			c0,0,2.1-12.8,0-13.1c-2.1-0.3-5.2,4.9-5.2,4.9s-3.4,9.8-5.8,13.4c-2.4,3.7-2.4,15.9-2.4,15.9l-5.5,4l-3.3,5.8
			c0,0-1.3-5.8-1.9-6.7c-0.6-0.9-6.9-2.4-9.2-5.8c-2.4-3.4-3.8-6.7-3.8-6.7s-5.3-10.4-6.5-9.2c-1.2,1.2-1.6,7.3-1.6,7.3l-3.6,7
			l-4.1,3.7l-5.6-6.1c0,0-0.3-3.7-2.5-5.2c-2.2-1.5-9.6-9.2-9.6-9.2s0.1-8.9-1.7-13.1s-1.7-11.9-1.7-11.9s-3.3,0.6-3.7,3.7
			c-0.4,3.1-2.3,10.4-3.3,12.8c-1,2.4-4.6,8.5-4.9,10.1c-0.4,1.5-3.6,11.3-3.6,11.3v-8.5l-3.5-3.1l-3.9-5.5c0,0-6.8-4.3-6.6-5.8
			c0.2-1.5-1.6,0.3-2.5-6.4s-1.4-14-2.7-16.2c-1.3-2.1,2.8-9.5,0-9.8c-2.8-0.3-4.6,5.8-5.2,11.9c-0.6,6.1,1,10.4-2.4,14
			c-3.4,3.7-2.6,11.6-3.4,12.5c-0.9,0.9-7.8,6.7-7.8,6.7l-2.9-12.5c0,0-4.6-11.9-5.1-13.7c-0.5-1.8-2.4-11-3.3-12.2
			c-0.9-1.2-2.7-5.5-2.7,2.7c0,8.2,3.7,11.9-1.2,15.3c-4.9,3.4-6.4,13.7-6.4,13.7l-3.4,6.4l-8.2,0.6l-3.3-0.6v-7.3l-5.2-9.8
			c0,0,0-16.2-1.8-18c-1.8-1.8-2.7,8.8-2.7,8.8l-4,4.3c0,0-3.1,13.4-7.9,16.2c-4.9,2.7-6.4,3.7-6.4,5.8c0,2.1-6.7-11.9-5.2-19.8
			c1.5-7.9,0.5-10.4-0.2-14.3c-0.7-4-3.1-22.9-3.1-22.9s-0.9,8.5-3.7,11.3c-2.7,2.7-4.9,12.5-4.6,14c0.3,1.5,0,8.5-3.1,12.2
			c-3.1,3.7-4,14-4,14l-3.1,6.7c0,0-2.1-1.8-4.6-8.2c-2.4-6.4-7.6-8.8-8.8-11.3c-1.2-2.4-3.7-3.4-4-11.6c-0.3-8.2,0-15.6,0-15.6
			s-4,2.4-4.6,6.1c-0.6,3.7,0.9,11-1.5,14c-2.4,3.1-10.1,13.1-9.5,14.9c0.6,1.8-1.8,5.8-1.8,5.8s0.6-19.5,0-20.4
			c-0.6-0.9-0.9-1.8-3.1-10.7c-2.1-8.8-3.4-12.5-3.7-13.7c-0.3-1.2-3.4,6.1-3.7,7.6c-0.3,1.5-0.3,7.6-2.4,11
			c-2.1,3.4-8.5,11.3-9.8,15.6c-1.2,4.3-3.1,10.1-4.3,11.6c-1.2,1.5-7,3.7-7,3.7s-0.3-14,0-15.3c0.3-1.2-3.7-12.5-4.6-15.3
			c-0.9-2.7-4-12.5-5.8-16.8c-1.8-4.3-5.8-14.9-5.8-14.9s-3.1,1.2-3.4,6.1c-0.3,4.9,0.9,11,0,15.3c-0.9,4.3-5.2,5.5-6.7,7
			c-1.5,1.5-11.6,15.9-11.6,15.9l-2.1,7l-12.2-1.8c0,0-1.2-10.7-3.7-19.2s-8-22.3-8-22.3s-6-8.7-8-20.2s-9-20-10-21.5S91,307,91,307
			s-1.5,7.5-5.5,12s-3.5,12-4,16s-3,15-3,15l3,20c0,0,2,10.4-3,15s-8,12.5-8,12.5L65,380l-14-10.5l-19,17l-6.5,1c0,0-7.5-14.5-8-16
			S-4,339-4,339v181h644.3V506.6z"/>
		<radialGradient id="SVGID_11_" cx="110.0539" cy="92.8329" r="533.293" gradientUnits="userSpaceOnUse">
			<stop  offset="0" style="stop-color:#F9FF45"/>
			<stop  offset="1" style="stop-color:#F9FF45;stop-opacity:0"/>
		</radialGradient>
		<circle class="st17" cx="110.1" cy="92.8" r="533.3"/>
		<g class="st5">
			<path class="st18" d="M455.4,144.9c0,0-4-1.8-5.9,0c0,0,3.7-0.5,5.9,2.2c2.2-2.7,5.9-2.2,5.9-2.2
				C459.4,143.1,455.4,144.9,455.4,144.9z"/>
			<path class="st18" d="M349.5,126.7c0,0-5-2.2-7.4,0c0,0,4.7-0.7,7.4,2.8c2.8-3.5,7.4-2.8,7.4-2.8
				C354.5,124.5,349.5,126.7,349.5,126.7z"/>
			<path class="st18" d="M506.4,165.8c0,0-6.7-3-9.9,0c0,0,6.2-0.9,9.9,3.7c3.7-4.6,9.9-3.7,9.9-3.7
				C513,162.8,506.4,165.8,506.4,165.8z"/>
			<path class="st18" d="M480,148.6c0,0-2.3-1-3.5,0c0,0,2.2-0.3,3.5,1.3c1.3-1.6,3.5-1.3,3.5-1.3C482.3,147.5,480,148.6,480,148.6z
				"/>
			<path class="st18" d="M569.3,148.6c0,0-2.2-1-3.2,0c0,0,2-0.3,3.2,1.2c1.2-1.5,3.2-1.2,3.2-1.2
				C571.5,147.6,569.3,148.6,569.3,148.6z"/>
			<path class="st18" d="M397.6,141.7c0,0-2.2-1-3.2,0c0,0,2-0.3,3.2,1.2c1.2-1.5,3.2-1.2,3.2-1.2
				C399.8,140.7,397.6,141.7,397.6,141.7z"/>
			<path class="st18" d="M322.2,164.1c0,0-2.3-1-3.5,0c0,0,2.2-0.3,3.5,1.3c1.3-1.6,3.5-1.3,3.5-1.3
				C324.5,163,322.2,164.1,322.2,164.1z"/>
		</g>
		<linearGradient id="SVGID_12_" gradientUnits="userSpaceOnUse" x1="373.5" y1="620.5718" x2="373.5" y2="385.031">
			<stop  offset="0" style="stop-color:#214244"/>
			<stop  offset="1" style="stop-color:#0A1E21"/>
		</linearGradient>
		<path class="st19" d="M403.8,502.3c0,0-19.9-5-25.1-6.7C373.7,494,363,490,363,490l-10.2-1.7l-9.3-8.7l-11,1.3
			c0,0-5.6-11-5.8-12.8c-0.2-1.7-4.2-6.9-4.2-6.9s-9.9,5.8-13,4.2c-3.1-1.5-5.5-1.2-5.5-1.2l-4.5-8.3c0,0-2.3-0.7-1.7-8
			c0.7-7.3-2.3-15.3-2.3-15.3l-4.7-2.3l-7.3,6c0,0,2.3,14.3,2.3,15.3s-2.3,12.7-2.3,12.7H278l-9.7,3.1l-7.3,5.7l-3,0.6l-6-6.3
			c0,0,1,6.9-3.7-3.1c-4.7-10-2-10.3-4.7-10c-2.7,0.3-6.3,5.3-6.3,5.3l-4.3-10.3h-3l-5.3-9c0,0-3,0.7-3.7,2c-0.7,1.3-6,20.6-6,20.6
			s-1.3,7.4-2.3,7.6s-6.3,5.6-6.3,5.6l-2.7,8.6l-17-1.3l-15-0.7l-4-2.3l-9-16l1.7-22L156,439c0,0-4.3,1.3-4.3-6.3
			c0-7.7-11.3-7-9.3-18.7s8.3-23.3,6.3-28.7c-2-5.3-13.7-13-16-29.7c-2.3-16.7-2.3-19-7.3-21.7s-4.7-11-4.7-18.7
			c0-7.7-3.3-6-5.7-14.3c-2.3-8.3-11-29-11-29s-3,12.3-4.7,16.7c-1.7,4.3-2.7,17-2.7,22.7c0,5.7-4.3,13.3-4.3,13.3
			c-4.3,3.7-2.3,16.3-2.3,24c0,7.7,8,37,3.3,43c-4.7,6-7,8-6.7,11c0.3,3,4.3,11,0,19.3c-4.3,8.3-6.3,14-7,20.7
			c-0.7,6.7-6,23.1-6,23.1s-6-10.1-5.3-16.4C69,443,70,439,70,433.7c0-5.3,2.3-7,3.3-12.7s1.7-17.7,1.7-17.7s-1.7-9.3-1.7-20
			c0-10.7-3-25.3-3-25.3s-3.3-9.7-6.3-14.7s-7.3-4-7-13s1-22.3-2-28c-3-5.7-7-6.7-7.3-13.3c-0.3-6.7,3.3-19.3,0-26.7
			c-3.3-7.3,4-9,0-16.3s-7.3-6.3-9.3-11.7c-2-5.3-6-8.3-6-8.3v-8.3c0,0-4,1.3-4.7,8.3c-0.7,7-3.3,10-3,13.7c0.3,3.7,4,18-1.7,25.7
			c-5.7,7.7-7.3,23.7-7.3,23.7s-2.3,19.3-3,21.7c-0.7,2.3-4,59-8.3,65c-4.3,6-9,17.7-9,17.7l-5,28.7v91.7h766.3V363.3
			c0,0-5.3-16.3-9-28.3c-3.7-12-1-13.7-5-20s-4-20-6.7-22c-2.7-2-2,13.3-4.7,18.3c-2.7,5-1.3,21-3.3,25s-2.7,13.7-2.7,13.7
			s-4.7,1.7-7.3,1.3c-2.7-0.3-1,5-4,9s-7.7,8-7.7,8s-1,9.7-3.3,14c-2.3,4.3-2.3,10-3.3,16.7s-0.7,12.3-2.7,9.7
			c-2-2.7-1.3-7.7-1.3-7.7s-4-0.7-4-4.3c0-3.7,0-12.7,0-12.7s-5.3-10-7-18.3c-1.7-8.3-0.7-16.3-3-17c-2.3-0.7-0.7,16-2.7,18.7
			c-2,2.7-6.7,14-7,19c-0.3,5,0.7,13.3-0.7,16c-1.3,2.7-4.7,7.3-4.3,16.7s1.7,14.3-1.7,19c-3.3,4.7-9,9.7-9.7,14.7c-0.7,5-2,12-2,12
			s-1.3-8-3-14c-1.7-6-5-14-5-14s-4.3-15.7-7.3-20.3c-3-4.7-1.3-16-3.7-17c-2.3-1-4.3,12.3-4.3,12.3s-6.7,12.7-7.7,20
			c-1,7.3-1.7,12.3-1.7,12.3s-12.7,1.7-15,6.7s-5.3,10.6-5.3,10.6s-4,1.3-5.3,4.9c-1.3,3.5-5,9.2-5,9.2l-8,0.1l-7,0.7
			c0,0-19,8.6-21.3,9.3c-2.3,0.7-2.7-9-4.7-11.5c-2-2.5-2-9.1-2-9.1s-2.3,1-2.7,5.8c-0.3,4.8-1.7,10.8-1.7,10.8l-14.7,7.3
			c0,0-20,4-24.3,5c-4.3,1-24,8.7-24,8.7l-10,2.3c0,0-25.4,1-27.4,1.3c-1.9,0.3-23.6-1.7-23.6-1.7L403.8,502.3z"/>
	</g>
</g>
<g id="DESIGNED_BY_FREEPIK">
</g>
</svg>
